<svg xmlns="http://www.w3.org/2000/svg" width="1080" height="272" viewBox="0 0 1080 272" role="img" aria-label="Commits by repository: Applying 1680, Quill 267, workspace 65, Exynex site 28, ICP pipelines 2">
  <rect width="1080" height="272" rx="14" fill="#FFFFFF" stroke="#DED5C4"/>
  <text x="28" y="34" font-family="-apple-system,BlinkMacSystemFont,'Segoe UI',Helvetica,Arial,sans-serif" font-size="13" letter-spacing="0.09em" fill="#897F71">WHERE THE COMMITS ARE</text>
  <text x="174" y="74" text-anchor="end" font-family="-apple-system,BlinkMacSystemFont,'Segoe UI',Helvetica,Arial,sans-serif" font-size="14" fill="#16120C">Applying</text>
  <rect x="190" y="58" width="740" height="22" rx="4" fill="#F4EEE2"/>
  <rect x="190" y="58" width="740" height="22" rx="4" fill="#DE4F1D"/>
  <text x="942" y="74" font-family="-apple-system,BlinkMacSystemFont,'Segoe UI',Helvetica,Arial,sans-serif" font-size="13.5" fill="#5E574B">1,680</text>
  <text x="174" y="112" text-anchor="end" font-family="-apple-system,BlinkMacSystemFont,'Segoe UI',Helvetica,Arial,sans-serif" font-size="14" fill="#16120C">Quill</text>
  <rect x="190" y="96" width="740" height="22" rx="4" fill="#F4EEE2"/>
  <rect x="190" y="96" width="118" height="22" rx="4" fill="#DE4F1D"/>
  <text x="320" y="112" font-family="-apple-system,BlinkMacSystemFont,'Segoe UI',Helvetica,Arial,sans-serif" font-size="13.5" fill="#5E574B">267</text>
  <text x="174" y="150" text-anchor="end" font-family="-apple-system,BlinkMacSystemFont,'Segoe UI',Helvetica,Arial,sans-serif" font-size="14" fill="#16120C">Workspace</text>
  <rect x="190" y="134" width="740" height="22" rx="4" fill="#F4EEE2"/>
  <rect x="190" y="134" width="29" height="22" rx="4" fill="#DE4F1D"/>
  <text x="231" y="150" font-family="-apple-system,BlinkMacSystemFont,'Segoe UI',Helvetica,Arial,sans-serif" font-size="13.5" fill="#5E574B">65</text>
  <text x="174" y="188" text-anchor="end" font-family="-apple-system,BlinkMacSystemFont,'Segoe UI',Helvetica,Arial,sans-serif" font-size="14" fill="#16120C">Exynex site</text>
  <rect x="190" y="172" width="740" height="22" rx="4" fill="#F4EEE2"/>
  <rect x="190" y="172" width="12" height="22" rx="4" fill="#DE4F1D"/>
  <text x="214" y="188" font-family="-apple-system,BlinkMacSystemFont,'Segoe UI',Helvetica,Arial,sans-serif" font-size="13.5" fill="#5E574B">28</text>
  <text x="174" y="226" text-anchor="end" font-family="-apple-system,BlinkMacSystemFont,'Segoe UI',Helvetica,Arial,sans-serif" font-size="14" fill="#16120C">ICP pipelines</text>
  <rect x="190" y="210" width="740" height="22" rx="4" fill="#F4EEE2"/>
  <rect x="190" y="210" width="3" height="22" rx="4" fill="#DE4F1D"/>
  <text x="205" y="226" font-family="-apple-system,BlinkMacSystemFont,'Segoe UI',Helvetica,Arial,sans-serif" font-size="13.5" fill="#5E574B">2</text>
  <text x="28" y="252" font-family="-apple-system,BlinkMacSystemFont,'Segoe UI',Helvetica,Arial,sans-serif" font-size="12" fill="#897F71">2,042 commits since April 2026. Counted in each repository, public and private.</text>
  </svg>
